<?xml version="1.0" standalone="no"?>
<!DOCTYPE svg PUBLIC "-//W3C//DTD SVG 20010904//EN"
 "http://www.w3.org/TR/2001/REC-SVG-20010904/DTD/svg10.dtd">
<svg version="1.0" xmlns="http://www.w3.org/2000/svg"
 width="512.000000pt" height="512.000000pt" viewBox="0 0 512.000000 512.000000"
 preserveAspectRatio="xMidYMid meet">
<metadata>
Created by potrace 1.14, written by Peter Selinger 2001-2017
</metadata>
<g transform="translate(0.000000,512.000000) scale(0.100000,-0.100000)"
fill="#000000" stroke="none">
<path d="M4048 4205 c-2 -2 -23 -6 -48 -9 -295 -39 -554 -218 -715 -491 -9
-15 -13 -16 -25 -3 -227 221 -619 413 -930 453 -78 11 -164 18 -235 20 -90 2
-131 -12 -141 -49 -6 -25 -5 -25 -150 -42 -46 -5 -54 -3 -77 20 -32 32 -42 32
-157 1 -188 -50 -462 -197 -631 -338 -234 -194 -424 -472 -529 -772 -50 -145
-89 -343 -85 -437 2 -42 -1 -51 -21 -66 -137 -97 -213 -164 -270 -238 -49 -64
-36 -155 28 -194 37 -22 76 -25 128 -10 75 22 160 37 160 28 0 -5 -13 -28 -29
-51 -129 -189 -220 -491 -247 -823 -8 -102 10 -164 64 -217 64 -62 94 -70 292
-69 197 0 235 9 299 73 48 49 65 92 77 194 18 157 64 332 94 360 20 19 37 18
145 -5 88 -19 117 -22 280 -25 138 -2 264 5 339 19 21 4 102 22 144 31 21 5
23 3 18 -27 -15 -100 -26 -215 -30 -303 -4 -125 13 -188 67 -244 60 -64 106
-74 337 -74 189 0 200 1 251 25 109 50 144 110 164 278 4 30 10 73 15 95 5 22
12 55 15 74 18 103 93 159 210 157 l69 -1 24 -70 c35 -103 59 -209 73 -310 17
-135 48 -185 139 -227 40 -19 63 -21 245 -21 180 0 206 2 246 20 53 24 83 52
111 108 17 32 21 57 20 126 -1 107 -12 136 -57 155 -20 8 -35 22 -36 32 -1 33
-10 97 -19 136 -8 35 -6 42 11 54 11 8 24 24 28 36 9 23 -15 123 -53 215 l-23
57 44 50 c136 151 231 334 308 589 42 140 70 201 105 227 42 31 128 47 275 53
77 3 151 7 165 10 76 14 120 28 131 41 6 8 17 14 23 14 21 0 107 82 145 139
21 31 46 77 57 103 l18 46 78 4 c69 3 81 6 105 31 40 40 37 101 -15 253 -142
423 -394 692 -722 771 -54 13 -292 27 -302 18z"/>
</g>
</svg>
